<svg width="86" height="37" viewBox="0 0 86 37" fill="none" xmlns="http://www.w3.org/2000/svg">
<ellipse cx="43" cy="18.5" rx="43" ry="18.5" fill="#D0000B"/>
<path fill-rule="evenodd" clip-rule="evenodd" d="M78.7926 23.1199H78.4153V29L75.1431 30.8L71.871 32.2V23.1199H71.4938L67.3359 24.944L63.1863 23.1199H62.8009V34.92L59.5328 35.57L56.2648 36.0979V23.1199H55.8876L51.7298 24.944H48.9661L47.5309 18.03C47.4489 17.7592 47.2084 17.6397 46.8092 17.6716H46.2434V36H39.7566V17.6716H39.1908C38.7916 17.6397 38.5511 17.7592 38.4691 18.03L37.0339 24.944H34.2702L30.1124 23.1199H29.7352V36.0938L26.5 35.6L23.1991 34.9023V23.1199H22.8137L18.6559 24.944L14.5062 23.1199H14.1208V32.2103L12.5604 31.57L11 30.9L9.29238 29.99L8.43857 29.51L7.58476 29V23.1199H7.20752L3.04971 24.944L2 23.7014L7.42894 20.1489C8.07954 19.7453 9.08551 19.5275 10.4468 19.4957L11.0537 19.4877C12.5244 19.5036 13.5987 19.724 14.2766 20.1489L18.6559 23.0164L23.0433 20.1489C23.6885 19.7453 24.6917 19.5275 26.053 19.4957L26.6599 19.4877C28.1306 19.5036 29.2076 19.724 29.891 20.1489L34.7049 23.2951C35.3227 19.7426 35.9569 16.5963 36.6074 13.8562C37.0066 12.7304 37.3674 11.9763 37.69 11.594C38.3132 10.8399 39.0021 10.4762 39.7566 10.5027H46.2434C46.9924 10.4762 47.6813 10.8399 48.31 11.594C48.6326 11.9763 48.9907 12.7304 49.3844 13.8562C50.0404 16.5963 50.6746 19.7426 51.2869 23.2951L56.109 20.1489C56.7924 19.724 57.8668 19.5036 59.332 19.4877L59.9388 19.4957C61.3001 19.5275 62.3061 19.7453 62.9567 20.1489L67.3359 23.0164L71.7234 20.1489C72.4013 19.724 73.4756 19.5036 74.9463 19.4877L75.5532 19.4957C76.9145 19.5275 77.9177 19.7453 78.5629 20.1489L84 23.7014L82.9501 24.944L78.7926 23.1199ZM28.6199 17.5999C28.0676 18.1309 27.4007 18.4124 26.6189 18.4442H26.3155C25.5336 18.4124 24.8639 18.1309 24.3062 17.5999C23.7157 17.0476 23.4205 16.3733 23.4205 15.5767C23.4205 14.7855 23.7157 14.1111 24.3062 13.5535C24.8639 13.0278 25.5336 12.7517 26.3155 12.7251H26.6189C27.4007 12.7517 28.0676 13.0278 28.6199 13.5535C29.2104 14.1111 29.5056 14.7855 29.5056 15.5767C29.5056 16.3733 29.2104 17.0476 28.6199 17.5999ZM45.817 7.39622C45.0844 8.09718 44.2069 8.46893 43.1845 8.51137H42.8155C41.7876 8.46893 40.9102 8.09718 40.183 7.39622C39.4122 6.66871 39.0267 5.78721 39.0267 4.75171C39.0267 3.71089 39.4122 2.82142 40.183 2.08329C40.9102 1.39296 41.7876 1.03186 42.8155 1H43.1845C44.2069 1.03186 45.0844 1.39296 45.817 2.08329C46.5878 2.82142 46.9733 3.71089 46.9733 4.75171C46.9733 5.78721 46.5878 6.66871 45.817 7.39622ZM62.5713 15.5767C62.5713 16.3733 62.2787 17.0476 61.6938 17.5999C61.1361 18.1309 60.4664 18.4124 59.6846 18.4442H59.3811C58.5993 18.4124 57.9296 18.1309 57.3719 17.5999C56.787 17.0476 56.4944 16.3733 56.4944 15.5767C56.4944 14.7855 56.787 14.1111 57.3719 13.5535C57.9296 13.0278 58.5993 12.7517 59.3811 12.7251H59.6846C60.4664 12.7517 61.1361 13.0278 61.6938 13.5535C62.2787 14.1111 62.5713 14.7855 62.5713 15.5767ZM75.2908 12.7251C76.078 12.7517 76.7477 13.0278 77.2999 13.5535C77.8904 14.1111 78.1856 14.7855 78.1856 15.5767C78.1856 16.3733 77.8904 17.0476 77.2999 17.5999C76.7477 18.1309 76.078 18.4124 75.2908 18.4442H74.9955C74.2137 18.4124 73.5439 18.1309 72.9863 17.5999C72.3959 17.0476 72.1006 16.3733 72.1006 15.5767C72.1006 14.7855 72.3959 14.1111 72.9863 13.5535C73.5439 13.0278 74.2137 12.7517 74.9955 12.7251H75.2908ZM13.0137 13.5535C13.6041 14.1111 13.8994 14.7855 13.8994 15.5767C13.8994 16.3733 13.6041 17.0476 13.0137 17.5999C12.4561 18.1309 11.7863 18.4124 11.0045 18.4442H10.701C9.91928 18.4124 9.24953 18.1309 8.69187 17.5999C8.10688 17.0476 7.81438 16.3733 7.81438 15.5767C7.81438 14.7855 8.10688 14.1111 8.69187 13.5535C9.24953 13.0278 9.91928 12.7517 10.701 12.7251H11.0045C11.7863 12.7517 12.4561 13.0278 13.0137 13.5535Z" fill="white"/>
</svg>
